HIERARCHY
ROOT Hips
{
	OFFSET 0.000000 0.000000 0.000000
	CHANNELS 6 Xposition Yposition Zposition Xrotation Yrotation Zrotation
	JOINT Spine
	{
		OFFSET 0.000000 0.044490 0.066735
		CHANNELS 3 Xrotation Yrotation Zrotation
		JOINT Spine1
		{
			OFFSET 0.000000 0.015451 0.087628
			CHANNELS 3 Xrotation Yrotation Zrotation
			JOINT Spine2
			{
				OFFSET 0.000000 0.007755 0.088641
				CHANNELS 3 Xrotation Yrotation Zrotation
				JOINT Spine3
				{
					OFFSET 0.000000 0.000000 0.088980
					CHANNELS 3 Xrotation Yrotation Zrotation
					JOINT Neck
					{
						OFFSET 0.000000 -0.033367 0.233572
						CHANNELS 3 Xrotation Yrotation Zrotation
						JOINT Head
						{
							OFFSET 0.000000 -0.021245 0.120488
							CHANNELS 3 Xrotation Yrotation Zrotation
							End Site
							{
								OFFSET 0.000000 0.000000 0.000000
							}
						}
					}
					JOINT RightShoulder
					{
						OFFSET -0.026917 -0.044862 0.145355
						CHANNELS 3 Xrotation Yrotation Zrotation
						JOINT RightArm
						{
							OFFSET -0.133690 0.000000 0.000000
							CHANNELS 3 Xrotation Yrotation Zrotation
							JOINT RightForeArm
							{
								OFFSET -0.257725 0.000000 0.000000
								CHANNELS 3 Xrotation Yrotation Zrotation
								JOINT RightHand
								{
									OFFSET -0.216749 0.000000 0.000000
									CHANNELS 3 Xrotation Yrotation Zrotation
									JOINT RightHandEnd
									{
										OFFSET -0.062518 0.000000 0.000000
										CHANNELS 3 Xrotation Yrotation Zrotation
										End Site
										{
											OFFSET 0.000000 0.000000 0.000000
										}
									}
									JOINT RightHandThumb1
									{
										OFFSET -0.025007 -0.041679 -0.016672
										CHANNELS 3 Xrotation Yrotation Zrotation
										End Site
										{
											OFFSET 0.000000 0.000000 0.000000
										}
									}
								}
							}
						}
					}
					JOINT LeftShoulder
					{
						OFFSET 0.026917 -0.044862 0.145355
						CHANNELS 3 Xrotation Yrotation Zrotation
						JOINT LeftArm
						{
							OFFSET 0.133690 0.000000 0.000000
							CHANNELS 3 Xrotation Yrotation Zrotation
							JOINT LeftForeArm
							{
								OFFSET 0.257725 0.000000 0.000000
								CHANNELS 3 Xrotation Yrotation Zrotation
								JOINT LeftHand
								{
									OFFSET 0.216749 0.000000 0.000000
									CHANNELS 3 Xrotation Yrotation Zrotation
									JOINT LeftHandEnd
									{
										OFFSET 0.062518 0.000000 0.000000
										CHANNELS 3 Xrotation Yrotation Zrotation
										End Site
										{
											OFFSET 0.000000 0.000000 0.000000
										}
									}
									JOINT LeftHandThumb1
									{
										OFFSET 0.025007 -0.041679 -0.016672
										CHANNELS 3 Xrotation Yrotation Zrotation
										End Site
										{
											OFFSET 0.000000 0.000000 0.000000
										}
									}
								}
							}
						}
					}
				}
			}
		}
	}
	JOINT RightUpLeg
	{
		OFFSET -0.079855 0.000000 -0.023329
		CHANNELS 3 Xrotation Yrotation Zrotation
		JOINT RightLeg
		{
			OFFSET 0.000000 0.000000 -0.366572
			CHANNELS 3 Xrotation Yrotation Zrotation
			JOINT RightFoot
			{
				OFFSET 0.000000 0.000000 -0.363650
				CHANNELS 3 Xrotation Yrotation Zrotation
				JOINT RightToeBase
				{
					OFFSET 0.000000 -0.114715 -0.041753
					CHANNELS 3 Xrotation Yrotation Zrotation
					End Site
					{
						OFFSET 0.000000 0.000000 0.000000
					}
				}
			}
		}
	}
	JOINT LeftUpLeg
	{
		OFFSET 0.079855 0.000000 -0.023329
		CHANNELS 3 Xrotation Yrotation Zrotation
		JOINT LeftLeg
		{
			OFFSET 0.000000 0.000000 -0.366572
			CHANNELS 3 Xrotation Yrotation Zrotation
			JOINT LeftFoot
			{
				OFFSET 0.000000 0.000000 -0.363650
				CHANNELS 3 Xrotation Yrotation Zrotation
				JOINT LeftToeBase
				{
					OFFSET 0.000000 -0.114715 -0.041753
					CHANNELS 3 Xrotation Yrotation Zrotation
					End Site
					{
						OFFSET 0.000000 0.000000 0.000000
					}
				}
			}
		}
	}
}
MOTION
Frames: 6
Frame Time: 0.033333
0.233187 -0.410253 0.788645 1.171100 2.169600 -82.504300 0.497100 -0.107000 -0.059500 -0.023400 -0.789600 -0.052900 3.003800 -1.313200 0.480800 0.408600 0.112900 0.433700 -10.856900 1.320800 -3.287000 0.129900 -2.968100 -5.376700 8.332400 -10.628500 14.850500 18.145100 -36.673300 60.041500 0.000000 0.000100 82.014700 78.347300 7.217300 -33.221000 0.000000 0.000000 0.000000 0.000000 0.000000 0.000000 1.116800 6.964100 -11.543700 -1.067000 28.233100 -3.276900 -0.000100 -0.000100 -102.732400 60.221000 -27.316000 7.788600 0.000000 0.000000 0.000000 0.000000 0.000000 0.000000 -18.724500 -0.274100 -11.926300 21.219900 0.000000 0.000000 -3.550700 -3.581100 -5.615900 -4.108400 0.000000 0.000000 -4.940800 -4.466700 1.792400 51.252400 0.000000 0.000000 3.566000 9.222600 2.896500 -32.621300 0.000000 0.000000 
0.259969 -0.416999 0.787380 0.267800 1.928400 -83.536200 0.817700 0.832600 -0.138900 0.096500 -0.597600 -0.068200 3.255100 -1.551100 0.124100 0.488100 0.022600 0.445600 -11.347100 0.455500 -3.007000 -0.082900 -2.430900 -4.331000 8.003100 -11.372400 15.417000 19.316600 -35.209200 61.397600 0.000000 0.000100 75.065200 79.233800 8.285600 -35.509600 0.000000 0.000000 0.000000 0.000000 0.000000 0.000000 1.452300 7.237700 -11.717200 1.597600 28.332000 -5.499900 -0.000100 -0.000100 -100.652700 62.534500 -28.572900 9.018600 0.000000 0.000000 0.000000 0.000000 0.000000 0.000000 -20.139300 1.102400 -10.916400 19.832400 0.000000 0.000000 -1.646600 -6.802600 -5.133200 -12.834300 0.000000 0.000000 0.173000 -2.365900 1.766300 42.028500 0.000000 0.000000 -3.565500 8.810900 2.790400 -30.127700 0.000000 0.000000 
0.288308 -0.425214 0.787408 -0.991900 1.422000 -84.294800 1.172100 1.823700 -0.166700 0.315200 -0.227800 -0.062800 3.326000 -1.490800 -0.299100 0.503700 -0.006000 0.333100 -12.105600 -0.781600 -2.994300 -0.085600 -1.924600 -3.293900 8.201100 -12.064200 15.368800 19.401000 -33.472000 61.159300 0.000000 0.000100 69.935100 79.624100 9.409700 -36.669200 0.000000 0.000000 0.000000 0.000000 0.000000 0.000000 1.890600 7.279700 -11.978600 4.921900 29.390500 -8.820700 -0.000100 -0.000100 -98.615900 64.875400 -28.584800 10.780000 0.000000 0.000000 0.000000 0.000000 0.000000 0.000000 -21.280300 3.026800 -10.803000 17.437900 0.000000 0.000000 -0.633000 -10.579200 -3.492900 -22.608900 0.000000 0.000000 3.593300 0.845200 2.671300 32.520500 0.000000 0.000000 -10.611400 6.407200 6.353600 -21.430500 0.000000 0.000000 
0.316621 -0.432664 0.787933 -1.939300 0.659800 -84.619600 1.443100 2.568900 -0.242500 0.607000 0.060800 -0.050200 3.076500 -1.259100 -0.760700 0.419200 0.023800 0.146500 -12.767600 -2.074500 -3.293000 -0.031000 -1.626000 -2.400700 8.530300 -12.387300 14.705600 18.855700 -31.931200 59.144600 0.000000 0.000100 67.408000 80.286800 10.499200 -36.349400 0.000000 0.000000 0.000000 0.000000 0.000000 0.000000 2.151600 6.876200 -12.396500 9.026800 31.213200 -13.145800 -0.000100 -0.000100 -96.541200 66.312000 -27.069300 11.994300 0.000000 0.000000 0.000000 0.000000 0.000000 0.000000 -22.158800 4.592000 -11.955000 14.497600 0.000000 0.000000 -0.755400 -12.691200 -2.079000 -27.265400 0.000000 0.000000 4.923800 3.403600 5.468800 25.100200 0.000000 0.000000 -14.147500 2.691400 8.460800 -13.300000 0.000000 0.000000 
0.343245 -0.438554 0.788556 -2.322100 0.010200 -84.922500 1.676100 2.948500 -0.352300 0.938900 0.154800 -0.042300 2.732200 -1.045400 -1.084200 0.307300 0.073300 -0.009000 -13.219700 -3.011300 -3.620400 -0.055100 -1.588800 -1.723100 8.827600 -12.438700 13.844500 17.624200 -30.143000 55.302400 0.000000 0.000100 67.455100 80.829700 12.053800 -35.245900 0.000000 0.000000 0.000000 0.000000 0.000000 0.000000 2.117100 6.525300 -12.769800 13.754100 32.825900 -18.376300 -0.000100 -0.000100 -94.460100 66.788100 -24.388300 12.722200 0.000000 0.000000 0.000000 0.000000 0.000000 0.000000 -23.171100 5.379100 -13.478700 14.112900 0.000000 0.000000 -2.167900 -11.629600 -2.894400 -26.903900 0.000000 0.000000 5.192500 4.648900 9.672600 19.844300 0.000000 0.000000 -15.250300 0.735600 6.978800 -8.432900 0.000000 0.000000 
0.368338 -0.443692 0.789470 -2.315500 -0.472300 -85.811300 1.878100 2.873400 -0.441300 1.151200 0.197000 -0.038900 2.581800 -0.826900 -1.070900 0.251700 0.110300 -0.076400 -13.688700 -3.480800 -3.640300 -0.085700 -1.670800 -1.223000 9.259800 -12.366400 13.166900 15.647800 -27.388700 50.369700 0.000000 0.000100 69.231500 80.433600 13.811100 -34.469900 0.000000 0.000000 0.000000 0.000000 0.000000 0.000000 1.958900 6.728900 -12.851000 18.340000 33.400500 -24.113800 -0.000100 -0.000100 -92.305100 66.575600 -21.563500 13.687900 0.000000 0.000000 0.000000 0.000000 0.000000 0.000000 -24.973400 5.682400 -13.568400 19.212200 0.000000 0.000000 -4.550200 -8.151200 -5.937700 -26.171000 0.000000 0.000000 5.113900 5.273500 13.731300 15.570200 0.000000 0.000000 -15.250700 0.390800 3.938000 -5.348500 0.000000 0.000000 
